<svg width="512" height="512" viewBox="0 0 512 512" fill="none" xmlns="http://www.w3.org/2000/svg">
<path d="M65.4158 204.2V308.75H51.7658V204.2H65.4158ZM121.83 309.8C114.93 309.8 108.73 308.6 103.23 306.2C97.8299 303.7 93.5799 300.3 90.4799 296C87.3799 291.6 85.7799 286.55 85.6799 280.85H100.23C100.73 285.75 102.73 289.9 106.23 293.3C109.83 296.6 115.03 298.25 121.83 298.25C128.33 298.25 133.43 296.65 137.13 293.45C140.93 290.15 142.83 285.95 142.83 280.85C142.83 276.85 141.73 273.6 139.53 271.1C137.33 268.6 134.58 266.7 131.28 265.4C127.98 264.1 123.53 262.7 117.93 261.2C111.03 259.4 105.48 257.6 101.28 255.8C97.1799 254 93.6299 251.2 90.6299 247.4C87.7299 243.5 86.2799 238.3 86.2799 231.8C86.2799 226.1 87.7299 221.05 90.6299 216.65C93.5299 212.25 97.5799 208.85 102.78 206.45C108.08 204.05 114.13 202.85 120.93 202.85C130.73 202.85 138.73 205.3 144.93 210.2C151.23 215.1 154.78 221.6 155.58 229.7H140.58C140.08 225.7 137.98 222.2 134.28 219.2C130.58 216.1 125.68 214.55 119.58 214.55C113.88 214.55 109.23 216.05 105.63 219.05C102.03 221.95 100.23 226.05 100.23 231.35C100.23 235.15 101.28 238.25 103.38 240.65C105.58 243.05 108.23 244.9 111.33 246.2C114.53 247.4 118.98 248.8 124.68 250.4C131.58 252.3 137.13 254.2 141.33 256.1C145.53 257.9 149.13 260.75 152.13 264.65C155.13 268.45 156.63 273.65 156.63 280.25C156.63 285.35 155.28 290.15 152.58 294.65C149.88 299.15 145.88 302.8 140.58 305.6C135.28 308.4 129.03 309.8 121.83 309.8ZM238.517 285.5H192.917L184.517 308.75H170.117L207.917 204.8H223.667L261.317 308.75H246.917L238.517 285.5ZM234.617 274.4L215.717 221.6L196.817 274.4H234.617ZM339.591 285.5H293.991L285.591 308.75H271.191L308.991 204.8H324.741L362.391 308.75H347.991L339.591 285.5ZM335.691 274.4L316.791 221.6L297.891 274.4H335.691ZM461.065 308.75H447.415L392.515 225.5V308.75H378.865V204.05H392.515L447.415 287.15V204.05H461.065V308.75Z" fill="#344675"/>
<path d="M65.4158 204.2H66.4158V203.2H65.4158V204.2ZM65.4158 308.75V309.75H66.4158V308.75H65.4158ZM51.7658 308.75H50.7658V309.75H51.7658V308.75ZM51.7658 204.2V203.2H50.7658V204.2H51.7658ZM64.4158 204.2V308.75H66.4158V204.2H64.4158ZM65.4158 307.75H51.7658V309.75H65.4158V307.75ZM52.7658 308.75V204.2H50.7658V308.75H52.7658ZM51.7658 205.2H65.4158V203.2H51.7658V205.2ZM103.23 306.2L102.81 307.107L102.82 307.112L102.83 307.117L103.23 306.2ZM90.4799 296L89.6624 296.576L89.6687 296.585L90.4799 296ZM85.6799 280.85V279.85H84.6622L84.68 280.868L85.6799 280.85ZM100.23 280.85L101.225 280.748L101.133 279.85H100.23V280.85ZM106.23 293.3L105.533 294.017L105.543 294.027L105.554 294.037L106.23 293.3ZM137.13 293.45L137.784 294.206L137.786 294.205L137.13 293.45ZM139.53 271.1L138.779 271.761L138.779 271.761L139.53 271.1ZM131.28 265.4L130.913 266.33L130.913 266.33L131.28 265.4ZM117.93 261.2L118.189 260.234L118.182 260.232L117.93 261.2ZM101.28 255.8L100.878 256.716L100.886 256.719L101.28 255.8ZM90.6299 247.4L89.8274 247.997L89.836 248.008L89.845 248.02L90.6299 247.4ZM90.6299 216.65L91.4648 217.2L91.4648 217.2L90.6299 216.65ZM102.78 206.45L102.367 205.539L102.361 205.542L102.78 206.45ZM144.93 210.2L144.31 210.985L144.316 210.989L144.93 210.2ZM155.58 229.7V230.7H156.684L156.575 229.602L155.58 229.7ZM140.58 229.7L139.588 229.824L139.697 230.7H140.58V229.7ZM134.28 219.2L133.638 219.967L133.644 219.972L133.65 219.977L134.28 219.2ZM105.63 219.05L106.257 219.829L106.264 219.824L106.27 219.818L105.63 219.05ZM103.38 240.65L102.627 241.309L102.635 241.317L102.643 241.326L103.38 240.65ZM111.33 246.2L110.943 247.122L110.961 247.13L110.979 247.136L111.33 246.2ZM124.68 250.4L124.41 251.363L124.414 251.364L124.68 250.4ZM141.33 256.1L140.918 257.011L140.927 257.015L140.936 257.019L141.33 256.1ZM152.13 264.65L151.337 265.26L151.345 265.27L152.13 264.65ZM152.58 294.65L153.437 295.164L153.437 295.164L152.58 294.65ZM140.58 305.6L140.113 304.716L140.58 305.6ZM121.83 308.8C115.047 308.8 108.986 307.621 103.63 305.283L102.83 307.117C108.474 309.579 114.813 310.8 121.83 310.8V308.8ZM103.65 305.293C98.3864 302.856 94.2787 299.559 91.2911 295.415L89.6687 296.585C92.881 301.041 97.2733 304.544 102.81 307.107L103.65 305.293ZM91.2974 295.424C88.3197 291.198 86.7764 286.345 86.6797 280.832L84.68 280.868C84.7833 286.755 86.4401 292.002 89.6624 296.576L91.2974 295.424ZM85.6799 281.85H100.23V279.85H85.6799V281.85ZM99.2351 280.952C99.7587 286.083 101.863 290.452 105.533 294.017L106.927 292.583C103.597 289.348 101.701 285.417 101.225 280.748L99.2351 280.952ZM105.554 294.037C109.4 297.563 114.878 299.25 121.83 299.25V297.25C115.182 297.25 110.26 295.637 106.906 292.563L105.554 294.037ZM121.83 299.25C128.49 299.25 133.85 297.609 137.784 294.206L136.476 292.694C133.01 295.691 128.17 297.25 121.83 297.25V299.25ZM137.786 294.205C141.808 290.712 143.83 286.235 143.83 280.85H141.83C141.83 285.665 140.052 289.588 136.474 292.695L137.786 294.205ZM143.83 280.85C143.83 276.658 142.672 273.157 140.281 270.439L138.779 271.761C140.788 274.043 141.83 277.042 141.83 280.85H143.83ZM140.281 270.439C137.969 267.813 135.084 265.824 131.646 264.47L130.913 266.33C134.076 267.576 136.691 269.387 138.779 271.761L140.281 270.439ZM131.646 264.47C128.296 263.15 123.805 261.739 118.189 260.234L117.671 262.166C123.254 263.661 127.664 265.05 130.913 266.33L131.646 264.47ZM118.182 260.232C111.307 258.439 105.81 256.653 101.674 254.881L100.886 256.719C105.15 258.547 110.753 260.361 117.677 262.168L118.182 260.232ZM101.682 254.884C97.7438 253.155 94.3217 250.463 91.4148 246.78L89.845 248.02C92.938 251.937 96.6159 254.845 100.878 256.716L101.682 254.884ZM91.4323 246.803C88.6977 243.126 87.2799 238.157 87.2799 231.8H85.2799C85.2799 238.443 86.762 243.874 89.8274 247.997L91.4323 246.803ZM87.2799 231.8C87.2799 226.279 88.6813 221.424 91.4648 217.2L89.7949 216.1C86.7784 220.676 85.2799 225.921 85.2799 231.8H87.2799ZM91.4648 217.2C94.2534 212.969 98.153 209.687 103.199 207.358L102.361 205.542C97.0068 208.013 92.8064 211.531 89.7949 216.1L91.4648 217.2ZM103.192 207.361C108.343 205.029 114.248 203.85 120.93 203.85V201.85C114.011 201.85 107.817 203.071 102.367 205.539L103.192 207.361ZM120.93 203.85C130.56 203.85 138.325 206.255 144.31 210.985L145.55 209.415C139.134 204.345 130.9 201.85 120.93 201.85V203.85ZM144.316 210.989C150.395 215.717 153.811 221.965 154.585 229.798L156.575 229.602C155.749 221.235 152.065 214.483 145.544 209.411L144.316 210.989ZM155.58 228.7H140.58V230.7H155.58V228.7ZM141.572 229.576C141.034 225.274 138.771 221.554 134.91 218.423L133.65 219.977C137.188 222.846 139.125 226.126 139.588 229.824L141.572 229.576ZM134.922 218.433C130.999 215.146 125.851 213.55 119.58 213.55V215.55C125.509 215.55 130.161 217.054 133.638 219.967L134.922 218.433ZM119.58 213.55C113.698 213.55 108.806 215.102 104.99 218.282L106.27 219.818C109.654 216.998 114.061 215.55 119.58 215.55V213.55ZM105.003 218.271C101.131 221.39 99.2299 225.797 99.2299 231.35H101.23C101.23 226.303 102.929 222.51 106.257 219.829L105.003 218.271ZM99.2299 231.35C99.2299 235.343 100.338 238.693 102.627 241.309L104.132 239.991C102.221 237.807 101.23 234.957 101.23 231.35H99.2299ZM102.643 241.326C104.944 243.836 107.714 245.768 110.943 247.122L111.717 245.278C108.745 244.032 106.216 242.264 104.117 239.974L102.643 241.326ZM110.979 247.136C114.218 248.351 118.699 249.76 124.41 251.363L124.95 249.437C119.261 247.84 114.842 246.449 111.681 245.264L110.979 247.136ZM124.414 251.364C131.288 253.257 136.784 255.141 140.918 257.011L141.742 255.189C137.476 253.259 131.871 251.343 124.945 249.436L124.414 251.364ZM140.936 257.019C144.967 258.747 148.433 261.485 151.337 265.26L152.923 264.04C149.827 260.015 146.093 257.053 141.724 255.181L140.936 257.019ZM151.345 265.27C154.163 268.839 155.63 273.794 155.63 280.25H157.63C157.63 273.506 156.097 268.061 152.915 264.03L151.345 265.27ZM155.63 280.25C155.63 285.163 154.332 289.786 151.722 294.136L153.437 295.164C156.228 290.514 157.63 285.537 157.63 280.25H155.63ZM151.722 294.136C149.129 298.458 145.275 301.989 140.113 304.716L141.047 306.484C146.485 303.611 150.631 299.842 153.437 295.164L151.722 294.136ZM140.113 304.716C134.983 307.426 128.9 308.8 121.83 308.8V310.8C129.16 310.8 135.577 309.374 141.047 306.484L140.113 304.716ZM238.517 285.5L239.457 285.16L239.219 284.5H238.517V285.5ZM192.917 285.5V284.5H192.215L191.976 285.16L192.917 285.5ZM184.517 308.75V309.75H185.219L185.457 309.09L184.517 308.75ZM170.117 308.75L169.177 308.408L168.689 309.75H170.117V308.75ZM207.917 204.8V203.8H207.217L206.977 204.458L207.917 204.8ZM223.667 204.8L224.607 204.459L224.368 203.8H223.667V204.8ZM261.317 308.75V309.75H262.743L262.257 308.409L261.317 308.75ZM246.917 308.75L245.976 309.09L246.215 309.75H246.917V308.75ZM234.617 274.4V275.4H236.037L235.558 274.063L234.617 274.4ZM215.717 221.6L216.658 221.263L215.717 218.633L214.775 221.263L215.717 221.6ZM196.817 274.4L195.875 274.063L195.397 275.4H196.817V274.4ZM238.517 284.5H192.917V286.5H238.517V284.5ZM191.976 285.16L183.576 308.41L185.457 309.09L193.857 285.84L191.976 285.16ZM184.517 307.75H170.117V309.75H184.517V307.75ZM171.057 309.092L208.857 205.142L206.977 204.458L169.177 308.408L171.057 309.092ZM207.917 205.8H223.667V203.8H207.917V205.8ZM222.727 205.141L260.377 309.091L262.257 308.409L224.607 204.459L222.727 205.141ZM261.317 307.75H246.917V309.75H261.317V307.75ZM247.857 308.41L239.457 285.16L237.576 285.84L245.976 309.09L247.857 308.41ZM235.558 274.063L216.658 221.263L214.775 221.937L233.675 274.737L235.558 274.063ZM214.775 221.263L195.875 274.063L197.758 274.737L216.658 221.937L214.775 221.263ZM196.817 275.4H234.617V273.4H196.817V275.4ZM339.591 285.5L340.532 285.16L340.293 284.5H339.591V285.5ZM293.991 285.5V284.5H293.289L293.051 285.16L293.991 285.5ZM285.591 308.75V309.75H286.293L286.532 309.09L285.591 308.75ZM271.191 308.75L270.251 308.408L269.764 309.75H271.191V308.75ZM308.991 204.8V203.8H308.291L308.051 204.458L308.991 204.8ZM324.741 204.8L325.681 204.459L325.443 203.8H324.741V204.8ZM362.391 308.75V309.75H363.817L363.331 308.409L362.391 308.75ZM347.991 308.75L347.051 309.09L347.289 309.75H347.991V308.75ZM335.691 274.4V275.4H337.111L336.633 274.063L335.691 274.4ZM316.791 221.6L317.733 221.263L316.791 218.633L315.85 221.263L316.791 221.6ZM297.891 274.4L296.95 274.063L296.471 275.4H297.891V274.4ZM339.591 284.5H293.991V286.5H339.591V284.5ZM293.051 285.16L284.651 308.41L286.532 309.09L294.932 285.84L293.051 285.16ZM285.591 307.75H271.191V309.75H285.591V307.75ZM272.131 309.092L309.931 205.142L308.051 204.458L270.251 308.408L272.131 309.092ZM308.991 205.8H324.741V203.8H308.991V205.8ZM323.801 205.141L361.451 309.091L363.331 308.409L325.681 204.459L323.801 205.141ZM362.391 307.75H347.991V309.75H362.391V307.75ZM348.932 308.41L340.532 285.16L338.651 285.84L347.051 309.09L348.932 308.41ZM336.633 274.063L317.733 221.263L315.85 221.937L334.75 274.737L336.633 274.063ZM315.85 221.263L296.95 274.063L298.833 274.737L317.733 221.937L315.85 221.263ZM297.891 275.4H335.691V273.4H297.891V275.4ZM461.065 308.75V309.75H462.065V308.75H461.065ZM447.415 308.75L446.581 309.301L446.877 309.75H447.415V308.75ZM392.515 225.5L393.35 224.949L391.515 222.167V225.5H392.515ZM392.515 308.75V309.75H393.515V308.75H392.515ZM378.865 308.75H377.865V309.75H378.865V308.75ZM378.865 204.05V203.05H377.865V204.05H378.865ZM392.515 204.05L393.35 203.499L393.053 203.05H392.515V204.05ZM447.415 287.15L446.581 287.701L448.415 290.478V287.15H447.415ZM447.415 204.05V203.05H446.415V204.05H447.415ZM461.065 204.05H462.065V203.05H461.065V204.05ZM461.065 307.75H447.415V309.75H461.065V307.75ZM448.25 308.199L393.35 224.949L391.681 226.051L446.581 309.301L448.25 308.199ZM391.515 225.5V308.75H393.515V225.5H391.515ZM392.515 307.75H378.865V309.75H392.515V307.75ZM379.865 308.75V204.05H377.865V308.75H379.865ZM378.865 205.05H392.515V203.05H378.865V205.05ZM391.681 204.601L446.581 287.701L448.25 286.599L393.35 203.499L391.681 204.601ZM448.415 287.15V204.05H446.415V287.15H448.415ZM447.415 205.05H461.065V203.05H447.415V205.05ZM460.065 204.05V308.75H462.065V204.05H460.065Z" fill="#344675"/>
<path d="M40 368L137.224 390.93C212.706 408.733 291.294 408.733 366.776 390.93L464 368" stroke="#344675" stroke-width="5"/>
<path d="M40 143L137.224 120.07C212.706 102.267 291.294 102.267 366.776 120.07L464 143" stroke="#344675" stroke-width="5"/>
</svg>
