<svg height="180" viewBox="0 0 180 180" width="180" xmlns="http://www.w3.org/2000/svg"><path d="m20.0011588 136.958459c-.1300075 10.328714 6.3403673 19.997511 16.5109565 22.797163 12.8007416 3.469568 21.3912393-5.619301 29.6617184-13.808282 21.9412711-21.77729 43.8858753-43.55458 65.8338143-65.33187l15.630905-15.4680752c4.680271-4.6394226 9.870572-8.9988801 11.860682-15.5580639 3.080184-10.0887446-1.420077-21.287351-11.000632-25.8667812-4.87453-2.4469742-10.439754-3.1526443-15.770914-1.9997511-6.670386 1.6397959-11.180647 6.7191639-15.89092 11.3485878-10.640617 10.4486997-21.1812273 20.9973871-31.8018426 31.4660843-12.3407149 12.2118137-24.7147651 24.4202945-37.1221506 36.6254423-6.2103598 6.10924-12.4507213 12.168486-18.6210788 18.297723-4.8002781 4.769407-9.2905382 10.358711-9.2905382 17.497823zm89.3451762-23.937022c3.690214 1.439821 8.000463.72991 12.000695.749907h14.080816c8.81051 0 18.201054.819898 26.921559-.499938 13.250768-1.999751 20.791205-16.8379044 16.39095-29.0863802-1.979651-5.4455289-5.959727-9.932577-11.130645-12.5484385-2.92879-1.51039-6.156915-2.3505742-9.450547-2.4596939-4.540263-.0899888-6.520378 2.7196616-9.600557 5.7492846-13.000753 12.7784098-25.611483 25.996765-39.172269 38.085261zm-38.5522336-43.8145473c-8.5204936-.7199104-17.2009965-.2799652-25.7414913-.2899639-4.7902775 0-9.6105568.1299838-14.4008343-.0799901-4.1402398-.1899763-8.1904745-.7999004-12.3107132 0-12.50901862 2.6630707-20.49154128 14.9591959-17.83103297 27.4665821 0 .1999751.09000521.3899515.13000753.5799278 1.53095263 6.1183424 5.7474381 11.2161624 11.47066454 13.8682744 3.0601773 1.389827 8.0004635 2.739659 11.4406628 2.56968 3.850223-.189976 6.3203661-3.799527 8.8505127-6.319214 12.720737-12.6917535 25.518145-25.2901858 38.3922242-37.7952963zm14.9208644-14.9981337c-6.0703517-6.2692198-11.9506924-12.728416-18.0010429-18.9976359-4.6802711-4.7994028-9.6205573-11.0886201-16.0009269-13.6982954-11.5406686-4.7394102-25.4414739 2.129735-29.3817022 13.7182929-1.9696811 5.9028554-1.5201968 12.3454873 1.2500724 17.9177703 1.3100759 2.6396716 3.4802016 6.0692448 6.0703517 7.5790569 2.8001622 1.6397959 6.7203893.9098868 9.8305695.9198855 8.7805087.039995 17.5510168.039995 26.3115243 0 3.3601947 0 8.8005098.9998756 11.9006894-.3599552s5.6403268-4.8593953 8.0004635-7.1091153zm9.0905266 73.750823c4.6202677 6.479193 11.4206616 11.998506 17.0009846 17.657802 4.930286 4.939386 10.00058 11.548563 16.540959 14.448202 11.690677 5.189354 26.431531-1.309837 30.331757-13.478323 1.837741-5.601344 1.421655-11.698048-1.160067-16.997884-1.348549-2.738421-3.252355-5.166268-5.590324-7.129113-3.160183-2.439697-7.000406-1.809775-10.780625-1.809775-8.450489 0-16.890978 0-25.341468-.069991-3.510203 0-9.570554-1.099863-12.910748.059992-3.0701777 1.159856-5.7903353 5.129362-8.0904686 7.31909zm-3.5402051 5.77928-15.5609015 14.588185c-4.7002723 4.429449-8.8305115 6.759159-7.560438 13.708294 1.8749727 9.902226 10.2216671 17.276264 20.281175 17.91777 10.0005793.689915 19.0011012-6.319213 22.6813142-15.34809.910052-2.279716 2.370137-5.879268 1.590092-8.338962s-4.270247-4.829399-6.000348-6.569182c-5.140298-5.33267-10.2839288-10.64201-15.4308937-15.928018zm-.570033-88.1890254 13.4707807-13.1783601c2.260131-2.2197238 5.660328-4.6094264 7.360426-7.2790942 1.340078-2.08974.940055-4.6594202.530031-6.9991291-1.820106-10.70866738-12.000695-19.0876247-23.0013327-17.99776032-9.8305695.99987557-18.2310562 8.92888889-20.6211947 18.41770812-1.6000927 6.4591962 2.6701547 8.75891 7.0904108 12.8983949 5.0602932 4.7327444 10.1172528 9.45549 15.1708789 14.1682369z" fill="#FC5656"/></svg>